<svg xmlns="http://www.w3.org/2000/svg" xml:space="preserve" enable-background="new 0 0 100 100" version="1.0" viewBox="0 0 100 100" id="reverse-left">
  <g id="reverse-left">
    <g>
      <g>
        <path fill="#BCBEC0" d="M68.75,83.333H50c-2.301,0-4.167-1.864-4.167-4.167C45.833,76.864,47.699,75,50,75h18.75
				c8.04,0,14.583-6.543,14.583-14.583S76.79,45.833,68.75,45.833H16.667c-2.301,0-4.167-1.866-4.167-4.167s1.866-4.167,4.167-4.167
				H68.75c12.634,0,22.917,10.28,22.917,22.917C91.667,73.051,81.384,83.333,68.75,83.333z"></path>
      </g>
      <g>
        <path fill="#58595B" d="M33.333,66.667c-1.066,0-2.132-0.407-2.946-1.221L9.554,44.613c-1.628-1.628-1.628-4.264,0-5.892
				l20.833-20.833c1.628-1.628,4.264-1.628,5.892,0c1.628,1.628,1.628,4.264,0,5.892L18.392,41.667l17.887,17.887
				c1.628,1.628,1.628,4.264,0,5.892C35.465,66.26,34.399,66.667,33.333,66.667z"></path>
      </g>
    </g>
  </g>
</svg>
